<svg width="29" height="28" viewBox="0 0 29 28" fill="none" xmlns="http://www.w3.org/2000/svg">
<path d="M12.4309 2.8878C12.6914 2.60847 13.0103 2.38502 13.3668 2.23205C13.7234 2.07907 14.1095 2 14.5 2C14.8905 2 15.2766 2.07907 15.6332 2.23205C15.9897 2.38502 16.3086 2.60847 16.5691 2.8878L17.5412 3.93043C17.819 4.22842 18.1631 4.46259 18.5479 4.6156C18.9328 4.76862 19.3485 4.83657 19.7644 4.81441L21.2225 4.73707C21.6125 4.71643 22.0027 4.775 22.3675 4.90897C22.7323 5.04293 23.0636 5.24926 23.3398 5.5145C23.6159 5.77974 23.8306 6.09792 23.97 6.44826C24.1093 6.79859 24.1702 7.17321 24.1485 7.54765L24.0679 8.94627C24.0451 9.34537 24.1159 9.7443 24.2753 10.1136C24.4347 10.4828 24.6784 10.8129 24.9886 11.0795L26.0745 12.0128C26.3657 12.263 26.5986 12.5692 26.7581 12.9117C26.9176 13.2541 27 13.625 27 14.0001C27 14.3752 26.9176 14.7461 26.7581 15.0885C26.5986 15.431 26.3657 15.7373 26.0745 15.9874L24.9886 16.9207C24.6782 17.1874 24.4344 17.5178 24.275 17.8873C24.1156 18.2568 24.0448 18.656 24.0679 19.0553L24.1485 20.4552C24.17 20.8297 24.109 21.2043 23.9694 21.5546C23.8299 21.9048 23.615 22.2229 23.3387 22.488C23.0625 22.7531 22.7311 22.9593 22.3662 23.0931C22.0013 23.2269 21.6111 23.2853 21.2212 23.2645L19.7644 23.1872C19.3488 23.1652 18.9333 23.2332 18.5487 23.3862C18.1641 23.5393 17.8202 23.7733 17.5426 24.0711L16.5705 25.1138C16.31 25.3933 15.991 25.6169 15.6343 25.7701C15.2777 25.9232 14.8914 26.0023 14.5007 26.0023C14.11 26.0023 13.7237 25.9232 13.3671 25.7701C13.0104 25.6169 12.6914 25.3933 12.4309 25.1138L11.4588 24.0711C11.181 23.7731 10.8369 23.539 10.4521 23.386C10.0672 23.2329 9.65146 23.165 9.23556 23.1872L7.77746 23.2645C7.38746 23.2851 6.99731 23.2266 6.63248 23.0926C6.26766 22.9586 5.93637 22.7523 5.66025 22.4871C5.38412 22.2218 5.16937 21.9036 5.03002 21.5533C4.89067 21.203 4.82985 20.8283 4.85153 20.4539L4.93208 19.0553C4.95494 18.6562 4.88408 18.2573 4.72471 17.888C4.56535 17.5187 4.32156 17.1886 4.01139 16.922L2.92545 15.9887C2.63429 15.7386 2.40137 15.4323 2.2419 15.0899C2.08243 14.7474 2 14.3766 2 14.0014C2 13.6263 2.08243 13.2554 2.2419 12.913C2.40137 12.5706 2.63429 12.2643 2.92545 12.0142L4.01139 11.0809C4.32175 10.8141 4.56565 10.4838 4.72502 10.1143C4.88439 9.74478 4.95516 9.34559 4.93208 8.94627L4.85153 7.54632C4.83024 7.17198 4.89139 6.79753 5.03101 6.44742C5.17062 6.09731 5.38556 5.77939 5.66179 5.51443C5.93803 5.24946 6.26935 5.0434 6.63414 4.90968C6.99892 4.77597 7.38898 4.7176 7.77884 4.73841L9.23556 4.81574C9.65123 4.8377 10.0667 4.76965 10.4513 4.61664C10.8359 4.46363 11.1798 4.22957 11.4574 3.93177L12.4309 2.8878Z" stroke="#48683D" stroke-width="2.5"/>
<path d="M11.0283 10.6677H11.0422V10.6811H11.0283V10.6677ZM17.9717 17.3342H17.9855V17.3475H17.9717V17.3342Z" stroke="#48683D" stroke-width="3.75" stroke-linejoin="round"/>
<path d="M18.666 10.001L10.334 18.0007" stroke="#48683D" stroke-width="2.5" stroke-linecap="round" stroke-linejoin="round"/>
</svg>
